<?xml version="1.0" standalone="no"?>
<!DOCTYPE svg PUBLIC "-//W3C//DTD SVG 20010904//EN"
 "http://www.w3.org/TR/2001/REC-SVG-20010904/DTD/svg10.dtd">
<svg version="1.0" xmlns="http://www.w3.org/2000/svg"
 width="512.000000pt" height="512.000000pt" viewBox="0 0 512.000000 512.000000"
 preserveAspectRatio="xMidYMid meet">
<metadata>
Created by potrace 1.11, written by Peter Selinger 2001-2013
</metadata>
<g transform="translate(0.000000,512.000000) scale(0.100000,-0.100000)"
fill="#000000" stroke="none">
<path d="M2738 5035 c-2 -2 -33 -6 -71 -9 -37 -4 -73 -9 -80 -11 -6 -2 -30 -7
-52 -10 -196 -28 -494 -141 -704 -266 -285 -171 -556 -445 -726 -734 -142
-241 -214 -445 -270 -760 -25 -145 -26 -437 -1 -605 79 -538 351 -1010 777
-1350 270 -216 616 -371 949 -425 25 -4 53 -9 63 -11 98 -18 340 -24 475 -12
260 23 515 96 752 212 87 43 245 136 285 169 6 4 34 25 64 47 56 41 60 56 6
20 -88 -59 -366 -174 -470 -194 -5 -1 -19 -5 -30 -9 -77 -25 -275 -49 -425
-51 -318 -6 -572 49 -857 184 -394 187 -701 492 -894 885 -83 169 -154 397
-175 555 -2 19 -8 62 -12 95 -9 70 -8 303 2 390 66 584 380 1092 871 1407 152
98 395 207 520 234 6 1 28 7 50 12 22 6 54 13 70 16 17 3 53 10 81 15 118 23
348 31 484 17 256 -25 503 -98 708 -208 30 -16 51 -25 48 -20 -7 11 -168 120
-211 143 -16 9 -60 32 -97 52 -161 84 -465 183 -623 201 -27 4 -77 10 -110 15
-53 7 -390 12 -397 6z"/>
<path d="M2219 5026 c-2 -2 -22 -7 -44 -10 -87 -14 -114 -19 -206 -42 -681
-168 -1264 -623 -1597 -1244 -146 -272 -249 -608 -280 -915 -14 -143 -6 -550
13 -608 2 -7 6 -30 9 -52 26 -203 108 -459 221 -690 302 -620 853 -1089 1515
-1288 257 -78 428 -102 720 -102 212 0 289 7 450 37 144 27 146 27 177 39 16
6 30 10 33 10 35 -5 317 103 465 179 392 198 712 485 965 865 182 273 340 700
376 1015 4 30 9 59 12 64 3 5 0 6 -6 2 -6 -3 -14 -21 -18 -38 -7 -33 -40 -140
-51 -168 -4 -8 -7 -17 -7 -20 -1 -3 -18 -47 -40 -98 -248 -599 -779 -1084
-1396 -1277 -83 -26 -217 -61 -267 -69 -173 -30 -258 -37 -412 -38 -119 0
-278 8 -311 17 -8 2 -30 7 -47 10 -18 3 -48 7 -65 10 -18 3 -71 15 -118 26
-698 164 -1286 668 -1564 1341 -56 134 -113 329 -131 448 -4 25 -9 54 -11 65
-16 85 -27 230 -26 340 1 98 11 261 18 300 2 10 6 37 10 60 51 357 230 762
469 1060 125 157 349 362 513 469 177 116 383 214 567 272 47 14 85 28 85 30
0 5 -16 5 -21 0z"/>
<path d="M3130 4659 c-156 -18 -253 -39 -387 -84 -182 -61 -375 -167 -530
-292 -69 -55 -217 -202 -258 -257 -17 -21 -35 -44 -40 -50 -34 -37 -124 -187
-169 -281 -75 -156 -129 -320 -151 -465 -4 -25 -9 -54 -12 -65 -12 -51 -11
-366 2 -450 43 -292 145 -552 302 -775 87 -122 291 -326 413 -412 94 -67 340
-198 371 -198 8 0 19 -4 25 -8 32 -29 405 -114 422 -97 3 3 -2 5 -10 5 -26 0
-187 55 -263 90 -74 34 -244 131 -267 152 -7 7 -31 26 -53 42 -22 16 -89 79
-150 140 -300 303 -455 688 -450 1116 2 140 6 173 31 300 47 230 176 504 316
670 107 126 288 284 403 353 177 105 376 177 588 212 118 20 328 20 465 0 63
-9 71 -11 177 -39 337 -90 637 -295 855 -586 77 -103 196 -333 225 -435 10
-33 19 -64 21 -70 7 -17 -6 77 -22 160 -14 71 -89 276 -136 369 -44 88 -149
262 -167 276 -3 3 -19 23 -36 45 -50 68 -238 247 -322 308 -247 176 -507 279
-818 323 -72 10 -299 12 -375 3z"/>
</g>
</svg>
